<svg xmlns="http://www.w3.org/2000/svg" aria-hidden="true" style="width:0;height:0;position:absolute;overflow:hidden"><defs><symbol id="icon-arrow-right" viewBox="0 0 32 32"><path stroke-linecap="round" stroke-linejoin="round" stroke-width="2.667" d="M6.667 16h18.667M16 25.333 25.333 16 16 6.667"/></symbol><symbol id="icon-arrow-left" viewBox="0 0 32 32"><path stroke-linecap="round" stroke-linejoin="round" stroke-width="2.667" d="M25.333 16H6.666M16 25.333 6.667 16 16 6.667"/></symbol><symbol id="icon-close" viewBox="0 0 32 32"><path d="M32 3.223 28.777 0 16 12.777 3.223 0 0 3.223 12.777 16 0 28.777 3.223 32 16 19.223 28.777 32 32 28.777 19.223 16 32 3.223z"/></symbol><symbol id="icon-youtube" viewBox="0 0 32 32"><path d="M31.331 8.248A4.023 4.023 0 0 0 28.502 5.4c-2.495-.672-12.501-.672-12.501-.672s-10.007 0-12.503.672A4.02 4.02 0 0 0 .67 8.248C.001 10.76.001 16 .001 16s0 5.24.669 7.752A4.023 4.023 0 0 0 3.499 26.6c2.495.672 12.501.672 12.501.672s10.007 0 12.503-.672a4.023 4.023 0 0 0 2.829-2.848C32 21.24 32 16 32 16s0-5.24-.669-7.752zM12.728 20.759v-9.517l8.363 4.759-8.363 4.759z"/></symbol><symbol id="icon-search" viewBox="0 0 32 32"><path stroke-linecap="round" stroke-linejoin="round" stroke-width="2.667" d="M14.667 25.333c5.891 0 10.667-4.776 10.667-10.667S20.558 3.999 14.667 3.999 4 8.775 4 14.666s4.776 10.667 10.667 10.667zM28 28.001l-5.8-5.8"/></symbol><symbol id="icon-film" viewBox="0 0 32 32"><path fill="none" stroke="#fff" style="stroke:var(--color1,#fff)" stroke-linejoin="round" stroke-linecap="round" stroke-width="2.667" d="M26.427 3.605H5.574c-1.605 0-2.907 1.24-2.907 2.768v19.856c0 1.528 1.301 2.768 2.907 2.768h20.853c1.605 0 2.907-1.24 2.907-2.768V6.373c0-1.528-1.301-2.768-2.907-2.768zm-17.094 0v25.392M22.667 3.605v25.392m-20-12.696h26.667M2.667 9.953h6.667M2.667 22.649h6.667m13.333 0h6.667M22.667 9.953h6.667"/></symbol><symbol id="icon-search2" viewBox="0 0 32 32"><path fill="none" stroke="#fff" style="stroke:var(--color1,#fff)" stroke-linejoin="round" stroke-linecap="round" stroke-width="2.667" d="M14.667 25.333c5.891 0 10.667-4.776 10.667-10.667S20.558 3.999 14.667 3.999v0C8.776 3.999 4 8.775 4 14.666s4.776 10.667 10.667 10.667v0zM28 28l-5.8-5.8"/></symbol><symbol id="icon-heart" viewBox="0 0 34 32"><path fill="#ff6b08" style="fill:var(--color1,#ff6b08)" d="m17.231 31.705-2.412-2.412C5.859 21.367.001 16.025.001 9.478.001 4.136 4.136.001 9.478.001c2.929 0 5.858 1.378 7.754 3.618 1.895-2.24 4.825-3.618 7.754-3.618 5.342 0 9.477 4.135 9.477 9.477 0 6.548-5.858 11.889-14.818 19.815l-2.412 2.412z"/></symbol><symbol id="icon-top-square" viewBox="0 0 32 32"><path d="M2.667 9.333a6.667 6.667 0 0 1 6.667-6.667h13.333a6.667 6.667 0 0 1 6.667 6.667v13.333a6.667 6.667 0 0 1-6.667 6.667H9.334a6.667 6.667 0 0 1-6.667-6.667V9.333zm6.666-4a4 4 0 0 0-4 4v13.333a4 4 0 0 0 4 4h13.333a4 4 0 0 0 4-4V9.333a4 4 0 0 0-4-4H9.333zm5.724 7.058-4 4a1.333 1.333 0 1 0 1.886 1.886L16 15.22l3.057 3.057a1.333 1.333 0 1 0 1.886-1.886l-4-4a1.333 1.333 0 0 0-1.886 0z"/></symbol></defs></svg>