<svg xmlns="http://www.w3.org/2000/svg" aria-hidden="true" style="width:0;height:0;position:absolute;overflow:hidden"><defs><symbol id="icon-arrow-right" viewBox="0 0 32 32"><path stroke-linecap="round" stroke-linejoin="round" stroke-width="2.667" d="M6.667 16h18.667M16 25.333 25.333 16 16 6.667"/></symbol><symbol id="icon-arrow-left" viewBox="0 0 32 32"><path stroke-linecap="round" stroke-linejoin="round" stroke-width="2.667" d="M25.333 16H6.666M16 25.333 6.667 16 16 6.667"/></symbol><symbol id="icon-close" viewBox="0 0 32 32"><path d="M32 3.223 28.777 0 16 12.777 3.223 0 0 3.223 12.777 16 0 28.777 3.223 32 16 19.223 28.777 32 32 28.777 19.223 16 32 3.223z"/></symbol><symbol id="icon-youtube" viewBox="0 0 32 32"><path d="M31.331 8.248A4.023 4.023 0 0 0 28.502 5.4c-2.495-.672-12.501-.672-12.501-.672s-10.007 0-12.503.672A4.02 4.02 0 0 0 .67 8.248C.001 10.76.001 16 .001 16s0 5.24.669 7.752A4.023 4.023 0 0 0 3.499 26.6c2.495.672 12.501.672 12.501.672s10.007 0 12.503-.672a4.023 4.023 0 0 0 2.829-2.848C32 21.24 32 16 32 16s0-5.24-.669-7.752zM12.728 20.759v-9.517l8.363 4.759-8.363 4.759z"/></symbol><symbol id="icon-search" viewBox="0 0 32 32"><path stroke-linecap="round" stroke-linejoin="round" stroke-width="2.667" d="M14.667 25.333c5.891 0 10.667-4.776 10.667-10.667S20.558 3.999 14.667 3.999 4 8.775 4 14.666s4.776 10.667 10.667 10.667zM28 28.001l-5.8-5.8"/></symbol></defs></svg>