<svg xmlns="http://www.w3.org/2000/svg" aria-hidden="true" style="position:absolute;width:0;height:0;overflow:hidden">
  <defs>
    <symbol id="icon-arrow-right" viewBox="0 0 32 32">
      <path stroke-linecap="round" stroke-linejoin="round" stroke-width="2.667" d="M6.667 16h18.667M16 25.333 25.333 16 16 6.667"/>
    </symbol>
    <symbol id="icon-arrow-left" viewBox="0 0 32 32">
      <path stroke-linecap="round" stroke-linejoin="round" stroke-width="2.667" d="M25.333 16H6.666M16 25.333 6.667 16 16 6.667"/>
    </symbol>
    <symbol id="icon-close" viewBox="0 0 32 32">
      <path d="M32 3.223 28.777 0 16 12.777 3.223 0 0 3.223 12.777 16 0 28.777 3.223 32 16 19.223 28.777 32 32 28.777 19.223 16 32 3.223z"/>
    </symbol>
    <symbol id="icon-youtube" viewBox="0 0 32 32">
      <path d="M31.331 8.248c-0.368-1.385-1.452-2.477-2.829-2.848-2.495-0.672-12.501-0.672-12.501-0.672s-10.007 0-12.503 0.672c-1.376 0.371-2.46 1.461-2.828 2.848-0.669 2.512-0.669 7.752-0.669 7.752s0 5.24 0.669 7.752c0.368 1.385 1.452 2.477 2.829 2.848 2.495 0.672 12.501 0.672 12.501 0.672s10.007 0 12.503-0.672c1.376-0.371 2.46-1.461 2.829-2.848 0.668-2.512 0.668-7.752 0.668-7.752s0-5.24-0.669-7.752zM12.728 20.759v-9.517l8.363 4.759-8.363 4.759z"></path>
    </symbol>
    <symbol id="icon-search" viewBox="0 0 32 32">
      <path stroke-linecap="round" stroke-linejoin="round" stroke-width="2.667" d="M14.667 25.333c5.891 0 10.667-4.776 10.667-10.667S20.558 3.999 14.667 3.999 4 8.775 4 14.666s4.776 10.667 10.667 10.667zM28 28.001l-5.8-5.8"/>
    </symbol>
  </defs>
</svg>
